HIERARCHY
ROOT Hips
{
	OFFSET 0.000000 0.000000 0.000000
	CHANNELS 6 Xposition Yposition Zposition Xrotation Yrotation Zrotation
	JOINT LeftUpLeg_virtual
	{
		OFFSET 0.000000 0.000000 0.000000
		CHANNELS 3 Xrotation Yrotation Zrotation
		JOINT LeftUpLeg
		{
			OFFSET 11.394100 -6.187798 -0.413800
			CHANNELS 3 Xrotation Yrotation Zrotation
			JOINT LeftLeg
			{
				OFFSET 0.430247 -32.302673 3.732800
				CHANNELS 3 Xrotation Yrotation Zrotation
				JOINT LeftFoot
				{
					OFFSET -0.430247 -48.264931 -6.423300
					CHANNELS 3 Xrotation Yrotation Zrotation
					JOINT LeftToeBase
					{
						OFFSET 4.230900 -16.068199 23.438400
						CHANNELS 3 Xrotation Yrotation Zrotation
						JOINT LeftToe_End
						{
							OFFSET 4.510700 0.695400 19.974600
							CHANNELS 3 Xrotation Yrotation Zrotation
							End Site
							{
								OFFSET 0 0 0
							}
						}
					}
				}
			}
		}
	}
	JOINT RightUpLeg_virtual
	{
		OFFSET 0.000000 0.000000 0.000000
		CHANNELS 3 Xrotation Yrotation Zrotation
		JOINT RightUpLeg
		{
			OFFSET -11.333700 -6.187798 -0.413800
			CHANNELS 3 Xrotation Yrotation Zrotation
			JOINT RightLeg
			{
				OFFSET -0.430392 -32.302628 3.733000
				CHANNELS 3 Xrotation Yrotation Zrotation
				JOINT RightFoot
				{
					OFFSET 0.430392 -48.264973 -6.423500
					CHANNELS 3 Xrotation Yrotation Zrotation
					JOINT RightToeBase
					{
						OFFSET -4.230900 -16.068199 23.438400
						CHANNELS 3 Xrotation Yrotation Zrotation
						JOINT RightToe_End
						{
							OFFSET -4.510700 0.695400 19.974600
							CHANNELS 3 Xrotation Yrotation Zrotation
							End Site
							{
								OFFSET 0 0 0
							}
						}
					}
				}
			}
		}
	}
	JOINT Spine_virtual
	{
		OFFSET 0.000000 0.000000 0.000000
		CHANNELS 3 Xrotation Yrotation Zrotation
		JOINT Spine
		{
			OFFSET -0.002400 12.777504 0.315300
			CHANNELS 3 Xrotation Yrotation Zrotation
			JOINT Spine1
			{
				OFFSET -0.002067 5.816869 0.032633
				CHANNELS 3 Xrotation Yrotation Zrotation
				JOINT Spine1_split
				{
					OFFSET -0.002067 5.816869 0.032633
					CHANNELS 3 Xrotation Yrotation Zrotation
					JOINT Spine2
					{
						OFFSET -0.002067 5.816869 0.032633
						CHANNELS 3 Xrotation Yrotation Zrotation
						JOINT Neck_virtual
						{
							OFFSET 0.000000 0.000000 0.000000
							CHANNELS 3 Xrotation Yrotation Zrotation
							JOINT Neck
							{
								OFFSET -0.003700 21.199493 -0.826900
								CHANNELS 3 Xrotation Yrotation Zrotation
								JOINT Head
								{
									OFFSET 0.000000 20.442200 4.834800
									CHANNELS 3 Xrotation Yrotation Zrotation
									JOINT HeadTop_End
									{
										OFFSET 0.000000 34.668396 4.968400
										CHANNELS 3 Xrotation Yrotation Zrotation
										End Site
										{
											OFFSET 0 0 0
										}
									}
								}
							}
						}
						JOINT LeftShoulder_virtual
						{
							OFFSET 0.000000 0.000000 0.000000
							CHANNELS 3 Xrotation Yrotation Zrotation
							JOINT LeftShoulder
							{
								OFFSET 3.288150 8.794197 -1.372250
								CHANNELS 3 Xrotation Yrotation Zrotation
								JOINT LeftShoulder_split
								{
									OFFSET 3.288150 8.794197 -1.372250
									CHANNELS 3 Xrotation Yrotation Zrotation
									JOINT LeftArm
									{
										OFFSET 11.953299 -2.279007 -0.146200
										CHANNELS 3 Xrotation Yrotation Zrotation
										JOINT LeftForeArm
										{
											OFFSET 18.448900 0.000000 0.000000
											CHANNELS 3 Xrotation Yrotation Zrotation
											JOINT LeftHand
											{
												OFFSET 29.527798 0.000000 0.000000
												CHANNELS 3 Xrotation Yrotation Zrotation
												End Site
												{
													OFFSET 0 0 0
												}
											}
										}
									}
								}
							}
						}
						JOINT RightShoulder_virtual
						{
							OFFSET 0.000000 0.000000 0.000000
							CHANNELS 3 Xrotation Yrotation Zrotation
							JOINT RightShoulder
							{
								OFFSET -3.249400 8.794197 -1.372250
								CHANNELS 3 Xrotation Yrotation Zrotation
								JOINT RightShoulder_split
								{
									OFFSET -3.249400 8.794197 -1.372250
									CHANNELS 3 Xrotation Yrotation Zrotation
									JOINT RightArm
									{
										OFFSET -11.953299 -2.279007 -0.146200
										CHANNELS 3 Xrotation Yrotation Zrotation
										JOINT RightForeArm
										{
											OFFSET -18.448900 0.000000 0.000000
											CHANNELS 3 Xrotation Yrotation Zrotation
											JOINT RightHand
											{
												OFFSET -29.527802 0.000000 0.000000
												CHANNELS 3 Xrotation Yrotation Zrotation
												End Site
												{
													OFFSET 0 0 0
												}
											}
										}
									}
								}
							}
						}
					}
				}
			}
		}
	}
}
MOTION
Frames: 9
Frame Time: 0.03333333
1.944301 96.119843 2.549637 0.000000 0.000000 0.000000 -31.885365 -41.586679 -20.596944 -6.462170 9.652822 5.116121 38.157637 3.327266 -1.075266 -3.927224 5.219010 3.804420 -6.337060 0.021390 0.019872 0.000000 0.000000 0.000000 -29.395628 -37.435007 -18.465090 11.792500 -10.934443 -5.001769 23.466606 4.996601 -5.756317 -11.130441 -12.439304 5.746925 -2.906670 0.378152 0.500007 0.000000 0.000000 0.000000 -31.796477 -39.282320 -20.698719 11.960597 -5.140091 0.285616 2.788225 -2.092827 0.287383 0.452673 1.890776 -0.006891 0.000000 0.000000 0.000000 2.877009 -2.148992 -0.002418 0.397881 0.679034 -1.842323 -6.783225 -2.254177 5.116006 0.000000 0.000000 0.000000 3.291096 -2.344475 0.168821 0.295543 -17.449791 -10.503647 0.376388 -0.295054 -0.687032 -19.843685 2.233571 -38.642287 2.612126 -66.550324 3.216209 0.000000 0.000000 0.000000 2.910417 -2.157064 0.185132 1.023678 10.923736 15.393909 0.728138 1.716666 -0.981404 -10.516684 -5.537164 62.393819 -0.343553 41.869336 1.280294 0.000000 0.000000 0.000000 
2.482490 96.195549 3.269670 0.000000 0.000000 0.000000 -32.829878 -43.601776 -22.363060 -4.328477 11.184956 5.529149 36.384534 3.406602 -2.179023 -5.419367 7.056701 6.646157 -6.360950 -0.115668 0.313590 0.000000 0.000000 0.000000 -30.293108 -39.216610 -20.089494 10.709461 -10.521890 -5.535383 23.444426 5.299782 -6.263727 -9.453527 -12.274139 7.004794 -2.795174 0.339067 0.032253 0.000000 0.000000 0.000000 -32.823973 -40.958848 -22.357205 11.992174 -5.185373 0.262491 2.807998 -2.086231 0.282099 0.420677 1.834678 0.016185 0.000000 0.000000 0.000000 2.869439 -2.131365 0.001805 0.489327 0.628545 -1.816639 -6.902611 -2.162222 5.011547 0.000000 0.000000 0.000000 3.290536 -2.308554 0.162785 0.328677 -17.537298 -10.473591 0.191457 -0.248005 -0.686697 -19.618632 2.143793 -38.472249 2.654035 -66.696866 3.226311 0.000000 0.000000 0.000000 2.990896 -2.127876 0.170451 1.031319 10.956045 15.517666 0.780006 1.657428 -1.087974 -10.582046 -5.576607 62.539090 -0.299328 41.780752 1.269983 0.000000 0.000000 0.000000 
3.061891 96.245895 4.031013 0.000000 0.000000 0.000000 -33.860642 -45.485935 -24.113800 -2.427884 12.269296 5.685192 34.896936 3.442489 -3.074736 -6.939038 8.805073 8.900160 -6.271335 -0.205063 0.432664 0.000000 0.000000 0.000000 -31.209084 -41.017116 -21.693668 9.758623 -9.971498 -5.910195 23.610793 4.958391 -6.769463 -8.170013 -12.639411 7.426412 -2.220280 0.302408 -0.106250 0.000000 0.000000 0.000000 -33.899865 -42.626616 -24.057682 11.961925 -5.194268 0.178742 2.829299 -2.076639 0.290206 0.437766 1.776084 0.088451 0.000000 0.000000 0.000000 2.884374 -2.112828 0.011184 0.590820 0.592652 -1.810555 -7.042238 -2.058230 4.875809 0.000000 0.000000 0.000000 3.315119 -2.274147 0.169374 0.380873 -17.575670 -10.368095 -0.009125 -0.260249 -0.770625 -19.450062 2.065588 -38.339529 2.705013 -66.747894 3.263124 0.000000 0.000000 0.000000 3.091295 -2.095789 0.167737 1.056500 11.013309 15.636832 0.876659 1.616585 -1.148297 -10.593917 -5.611502 62.613567 -0.256852 41.853968 1.259302 0.000000 0.000000 0.000000 
3.661274 96.319603 4.830126 0.000000 0.000000 0.000000 -34.938033 -47.158590 -25.816297 -0.793334 12.899419 5.540845 33.679700 3.485542 -3.694909 -8.207563 10.421328 10.510112 -5.924032 -0.217264 0.334206 0.000000 0.000000 0.000000 -32.260155 -42.872203 -23.365700 8.879675 -9.409179 -6.000486 24.213910 3.977562 -7.230027 -7.303868 -13.392167 7.037926 -1.581777 0.279734 0.066726 0.000000 0.000000 0.000000 -35.064292 -44.317013 -25.807533 11.847675 -5.172199 0.065381 2.854794 -2.077908 0.310718 0.531618 1.693491 0.175843 0.000000 0.000000 0.000000 2.936870 -2.100664 0.030995 0.671405 0.565986 -1.810630 -7.206826 -1.960078 4.734008 0.000000 0.000000 0.000000 3.362508 -2.251800 0.186059 0.443079 -17.587028 -10.220238 -0.174009 -0.310246 -0.922132 -19.389198 2.046697 -38.267234 2.750145 -66.717821 3.325235 0.000000 0.000000 0.000000 3.189334 -2.073214 0.176421 1.094926 11.087608 15.745017 1.019045 1.596864 -1.168699 -10.560954 -5.670964 62.588889 -0.233875 42.043298 1.250678 0.000000 0.000000 0.000000 
4.289085 96.477867 5.631807 0.000000 0.000000 0.000000 -36.113587 -48.681863 -27.589661 0.716245 13.249890 5.078739 32.455720 3.762304 -4.052316 -9.132351 11.916747 11.601947 -5.458607 -0.148660 0.044986 0.000000 0.000000 0.000000 -33.438940 -44.765374 -25.123517 8.014940 -8.953120 -5.779596 25.328594 2.652512 -7.577079 -6.761288 -14.143670 6.343124 -1.501333 0.289481 0.427711 0.000000 0.000000 0.000000 -36.300475 -46.021132 -27.621295 11.682007 -5.129917 -0.030636 2.873967 -2.091580 0.336358 0.634358 1.590203 0.271528 0.000000 0.000000 0.000000 3.029912 -2.102140 0.058949 0.708040 0.548332 -1.808818 -7.377563 -1.867832 4.623091 0.000000 0.000000 0.000000 3.421503 -2.246086 0.206814 0.498748 -17.575405 -10.076046 -0.267871 -0.411272 -1.057826 -19.451808 2.089313 -38.270612 2.776131 -66.635114 3.407112 0.000000 0.000000 0.000000 3.270444 -2.070369 0.193076 1.134654 11.166408 15.853750 1.149825 1.635555 -1.146042 -10.514197 -5.771261 62.469347 -0.246963 42.303320 1.254392 0.000000 0.000000 0.000000 
4.965745 96.731285 6.426538 0.000000 0.000000 0.000000 -37.518776 -50.209834 -29.590558 2.119381 13.489659 4.372764 31.124551 4.286223 -4.178280 -9.648091 13.275582 12.192423 -4.996064 -0.017841 -0.352821 0.000000 0.000000 0.000000 -34.838162 -46.693711 -27.067606 7.139788 -8.753147 -5.234066 27.023792 1.207297 -7.748233 -6.467543 -14.631300 5.685395 -2.217318 0.313685 0.891850 0.000000 0.000000 0.000000 -37.661161 -47.780776 -29.563046 11.498863 -5.087202 -0.077728 2.880101 -2.118721 0.358360 0.766473 1.475984 0.287762 0.000000 0.000000 0.000000 3.148276 -2.114169 0.088002 0.704443 0.541105 -1.804256 -7.516824 -1.791021 4.572763 0.000000 0.000000 0.000000 3.472225 -2.254561 0.222744 0.529876 -17.567895 -10.000307 -0.262053 -0.553865 -1.107687 -19.607960 2.177814 -38.341042 2.773129 -66.531001 3.495805 0.000000 0.000000 0.000000 3.319435 -2.086493 0.205434 1.167688 11.240288 15.954364 1.259043 1.755170 -1.092257 -10.462326 -5.906018 62.317164 -0.296761 42.560032 1.279769 0.000000 0.000000 0.000000 
5.658837 97.022942 7.181616 0.000000 0.000000 0.000000 -39.247049 -51.873364 -31.906259 3.456072 13.855017 3.591418 29.838084 4.962675 -4.202612 -9.805538 14.348701 12.326237 -4.645191 0.106306 -0.723342 0.000000 0.000000 0.000000 -36.523795 -48.667505 -29.293271 6.539960 -8.955772 -4.394133 29.176505 -0.280338 -7.663302 -6.676431 -14.828344 4.944353 -3.289212 0.327351 1.463747 0.000000 0.000000 0.000000 -39.224489 -49.567895 -31.716844 11.340543 -5.044287 -0.053943 2.874408 -2.148220 0.363376 0.852411 1.326306 0.259737 0.000000 0.000000 0.000000 3.265723 -2.130344 0.109405 0.683924 0.535152 -1.801674 -7.582926 -1.726740 4.586686 0.000000 0.000000 0.000000 3.508493 -2.270826 0.220158 0.527295 -17.566073 -10.026137 -0.186104 -0.694249 -1.039791 -19.819500 2.279389 -38.474923 2.735202 -66.439525 3.570758 0.000000 0.000000 0.000000 3.339991 -2.111793 0.200671 1.186402 11.307966 16.051202 1.332837 1.926991 -1.031108 -10.387609 -6.037067 62.216774 -0.363846 42.720275 1.325605 0.000000 0.000000 0.000000 
6.395419 97.267677 7.867588 0.000000 0.000000 0.000000 -41.539947 -53.751062 -34.734043 4.608622 14.416846 2.879193 28.907007 5.688134 -4.229289 -9.724318 15.122713 12.024417 -4.465037 0.200686 -0.954493 0.000000 0.000000 0.000000 -38.519528 -50.665066 -31.821083 6.497969 -9.636284 -3.404270 31.440392 -1.796856 -7.297289 -7.608524 -14.935587 3.900601 -4.280464 0.319118 2.116792 0.000000 0.000000 0.000000 -41.101609 -51.367110 -34.208514 11.228828 -4.996998 0.026896 2.855190 -2.163880 0.350208 0.865807 1.210596 0.192343 0.000000 0.000000 0.000000 3.354743 -2.141852 0.112222 0.673649 0.530454 -1.808673 -7.543033 -1.665726 4.654818 0.000000 0.000000 0.000000 3.520050 -2.282156 0.198239 0.490499 -17.554814 -10.154019 -0.083565 -0.802756 -0.871841 -20.042205 2.356079 -38.628261 2.670574 -66.371127 3.623559 0.000000 0.000000 0.000000 3.337248 -2.133987 0.170758 1.186076 11.346314 16.125436 1.406397 2.134611 -0.999185 -10.296600 -6.148915 62.231199 -0.428555 42.753709 1.385897 0.000000 0.000000 0.000000 
7.148395 97.327209 8.488180 0.000000 0.000000 0.000000 -44.445711 -55.782879 -38.100363 5.444146 15.104313 2.341213 28.630877 6.385424 -4.354375 -9.725637 15.686407 11.531943 -4.306562 0.247728 -1.000660 0.000000 0.000000 0.000000 -40.905084 -52.709140 -34.732731 7.114946 -10.753342 -2.438713 33.416014 -3.376690 -6.709511 -8.926760 -15.282881 2.788736 -5.537699 0.239839 2.735492 0.000000 0.000000 0.000000 -43.319597 -53.169071 -37.008004 11.153950 -4.945995 0.109912 2.830570 -2.166643 0.317697 0.820419 1.124324 0.106681 0.000000 0.000000 0.000000 3.395080 -2.143576 0.100737 0.694957 0.522349 -1.831722 -7.399213 -1.615186 4.739645 0.000000 0.000000 0.000000 3.495234 -2.283500 0.156491 0.432970 -17.541498 -10.349272 -0.003331 -0.812949 -0.671800 -20.226772 2.402227 -38.749504 2.605190 -66.339298 3.661808 0.000000 0.000000 0.000000 3.311234 -2.146473 0.116608 1.167322 11.345836 16.146420 1.497883 2.324693 -0.995253 -10.213248 -6.241173 62.367687 -0.475617 42.651922 1.456375 0.000000 0.000000 0.000000 
